<mxfile host="65bd71144e">
    <diagram id="yYOrmMYohB1HmC1-BC92" name="Page-1">
        <mxGraphModel dx="974" dy="800" grid="1" gridSize="10" guides="1" tooltips="1" connect="1" arrows="1" fold="1" page="0" pageScale="1" pageWidth="827" pageHeight="1169" math="0" shadow="0">
            <root>
                <mxCell id="0"/>
                <mxCell id="1" parent="0"/>
                <mxCell id="11" value="" style="rounded=0;whiteSpace=wrap;html=1;fontSize=18;" parent="1" vertex="1">
                    <mxGeometry x="1320" y="120" width="90" height="520" as="geometry"/>
                </mxCell>
                <mxCell id="rlvlehiji5V7kBC4I5T0-6" style="edgeStyle=orthogonalEdgeStyle;rounded=0;orthogonalLoop=1;jettySize=auto;html=1;fontSize=50;" parent="1" source="rlvlehiji5V7kBC4I5T0-1" target="rlvlehiji5V7kBC4I5T0-5" edge="1">
                    <mxGeometry relative="1" as="geometry"/>
                </mxCell>
                <mxCell id="rlvlehiji5V7kBC4I5T0-10" style="edgeStyle=orthogonalEdgeStyle;rounded=0;orthogonalLoop=1;jettySize=auto;html=1;fontSize=50;" parent="1" source="rlvlehiji5V7kBC4I5T0-1" target="rlvlehiji5V7kBC4I5T0-4" edge="1">
                    <mxGeometry relative="1" as="geometry">
                        <Array as="points">
                            <mxPoint x="900" y="420"/>
                            <mxPoint x="900" y="420"/>
                        </Array>
                    </mxGeometry>
                </mxCell>
                <mxCell id="rlvlehiji5V7kBC4I5T0-11" style="edgeStyle=orthogonalEdgeStyle;rounded=0;orthogonalLoop=1;jettySize=auto;html=1;fontSize=50;" parent="1" source="rlvlehiji5V7kBC4I5T0-1" target="rlvlehiji5V7kBC4I5T0-3" edge="1">
                    <mxGeometry relative="1" as="geometry">
                        <Array as="points">
                            <mxPoint x="660" y="410"/>
                            <mxPoint x="660" y="410"/>
                        </Array>
                    </mxGeometry>
                </mxCell>
                <mxCell id="rlvlehiji5V7kBC4I5T0-1" value="Kronos Engine&lt;br&gt;(static library)" style="rounded=0;whiteSpace=wrap;html=1;" parent="1" vertex="1">
                    <mxGeometry x="560" y="280" width="440" height="80" as="geometry"/>
                </mxCell>
                <mxCell id="rlvlehiji5V7kBC4I5T0-2" value="&lt;span style=&quot;font-size: 50px&quot;&gt;High-level overview&lt;/span&gt;" style="text;html=1;strokeColor=none;fillColor=none;align=center;verticalAlign=middle;whiteSpace=wrap;rounded=0;" parent="1" vertex="1">
                    <mxGeometry x="520" y="60" width="520" height="80" as="geometry"/>
                </mxCell>
                <mxCell id="rlvlehiji5V7kBC4I5T0-3" value="Application&lt;br&gt;(executable)" style="rounded=0;whiteSpace=wrap;html=1;" parent="1" vertex="1">
                    <mxGeometry x="560" y="540" width="200" height="120" as="geometry"/>
                </mxCell>
                <mxCell id="rlvlehiji5V7kBC4I5T0-4" value="Editor Application&lt;br&gt;(executable)" style="rounded=0;whiteSpace=wrap;html=1;" parent="1" vertex="1">
                    <mxGeometry x="800" y="540" width="200" height="120" as="geometry"/>
                </mxCell>
                <mxCell id="rlvlehiji5V7kBC4I5T0-8" style="edgeStyle=orthogonalEdgeStyle;rounded=0;orthogonalLoop=1;jettySize=auto;html=1;fontSize=50;exitX=0.5;exitY=1;exitDx=0;exitDy=0;" parent="1" source="rlvlehiji5V7kBC4I5T0-5" target="rlvlehiji5V7kBC4I5T0-3" edge="1">
                    <mxGeometry relative="1" as="geometry"/>
                </mxCell>
                <mxCell id="rlvlehiji5V7kBC4I5T0-9" style="edgeStyle=orthogonalEdgeStyle;rounded=0;orthogonalLoop=1;jettySize=auto;html=1;fontSize=50;" parent="1" source="rlvlehiji5V7kBC4I5T0-5" target="rlvlehiji5V7kBC4I5T0-4" edge="1">
                    <mxGeometry relative="1" as="geometry"/>
                </mxCell>
                <mxCell id="rlvlehiji5V7kBC4I5T0-5" value="Hot-reloadable&lt;br&gt;application code&lt;br&gt;(dynamic library)" style="rounded=0;whiteSpace=wrap;html=1;" parent="1" vertex="1">
                    <mxGeometry x="680" y="380" width="200" height="120" as="geometry"/>
                </mxCell>
                <mxCell id="2" value="" style="rounded=0;whiteSpace=wrap;html=1;" parent="1" vertex="1">
                    <mxGeometry x="1368" y="240" width="791" height="80" as="geometry"/>
                </mxCell>
                <mxCell id="3" value="&lt;span style=&quot;font-size: 50px&quot;&gt;Scheduling Infrastructure&lt;/span&gt;" style="text;html=1;strokeColor=none;fillColor=none;align=center;verticalAlign=middle;whiteSpace=wrap;rounded=0;" parent="1" vertex="1">
                    <mxGeometry x="1370" y="60" width="790" height="80" as="geometry"/>
                </mxCell>
                <mxCell id="4" value="" style="rounded=0;whiteSpace=wrap;html=1;" parent="1" vertex="1">
                    <mxGeometry x="1369" y="340" width="791" height="80" as="geometry"/>
                </mxCell>
                <mxCell id="5" value="" style="rounded=0;whiteSpace=wrap;html=1;" parent="1" vertex="1">
                    <mxGeometry x="1370" y="440" width="791" height="80" as="geometry"/>
                </mxCell>
                <mxCell id="6" value="" style="rounded=0;whiteSpace=wrap;html=1;" parent="1" vertex="1">
                    <mxGeometry x="1370" y="540" width="791" height="80" as="geometry"/>
                </mxCell>
                <mxCell id="7" value="&lt;font style=&quot;font-size: 16px&quot;&gt;Simulation Layer&lt;/font&gt;" style="text;html=1;strokeColor=none;fillColor=none;align=center;verticalAlign=middle;whiteSpace=wrap;rounded=0;" parent="1" vertex="1">
                    <mxGeometry x="1369" y="240" width="789" height="30" as="geometry"/>
                </mxCell>
                <mxCell id="13" value="&lt;font style=&quot;font-size: 18px&quot;&gt;Layer Stack&lt;/font&gt;" style="text;html=1;strokeColor=none;fillColor=none;align=center;verticalAlign=middle;whiteSpace=wrap;rounded=0;rotation=-90;" parent="1" vertex="1">
                    <mxGeometry x="1084.86" y="365.14" width="518.05" height="34.92" as="geometry"/>
                </mxCell>
                <mxCell id="14" value="&lt;font style=&quot;font-size: 16px&quot;&gt;Mangement Layer&lt;/font&gt;" style="text;html=1;strokeColor=none;fillColor=none;align=center;verticalAlign=middle;whiteSpace=wrap;rounded=0;" parent="1" vertex="1">
                    <mxGeometry x="1370" y="340" width="790" height="30" as="geometry"/>
                </mxCell>
                <mxCell id="16" value="&lt;font style=&quot;font-size: 16px&quot;&gt;Core Layer&lt;/font&gt;" style="text;html=1;strokeColor=none;fillColor=none;align=center;verticalAlign=middle;whiteSpace=wrap;rounded=0;" parent="1" vertex="1">
                    <mxGeometry x="1369" y="440" width="790" height="30" as="geometry"/>
                </mxCell>
                <mxCell id="17" value="&lt;span style=&quot;font-size: 16px&quot;&gt;Platform Layer&lt;/span&gt;" style="text;html=1;strokeColor=none;fillColor=none;align=center;verticalAlign=middle;whiteSpace=wrap;rounded=0;" parent="1" vertex="1">
                    <mxGeometry x="1370" y="540" width="791" height="30" as="geometry"/>
                </mxCell>
                <mxCell id="19" value="Game Loop" style="rounded=0;whiteSpace=wrap;html=1;fontSize=14;" parent="1" vertex="1">
                    <mxGeometry x="2030" y="370" width="120" height="40" as="geometry"/>
                </mxCell>
                <mxCell id="20" value="Physics/Collision" style="rounded=0;whiteSpace=wrap;html=1;fontSize=14;" parent="1" vertex="1">
                    <mxGeometry x="1509" y="270" width="120" height="40" as="geometry"/>
                </mxCell>
                <mxCell id="25" value="Scene Graph" style="rounded=0;whiteSpace=wrap;html=1;fontSize=14;" parent="1" vertex="1">
                    <mxGeometry x="1379" y="370" width="120" height="40" as="geometry"/>
                </mxCell>
                <mxCell id="26" value="Input Manager" style="rounded=0;whiteSpace=wrap;html=1;fontSize=14;" parent="1" vertex="1">
                    <mxGeometry x="1509" y="370" width="120" height="40" as="geometry"/>
                </mxCell>
                <mxCell id="27" value="Audio Engine" style="rounded=0;whiteSpace=wrap;html=1;fontSize=14;" parent="1" vertex="1">
                    <mxGeometry x="1639" y="370" width="120" height="40" as="geometry"/>
                </mxCell>
                <mxCell id="28" value="Networking" style="rounded=0;whiteSpace=wrap;html=1;fontSize=14;" parent="1" vertex="1">
                    <mxGeometry x="1769" y="370" width="120" height="40" as="geometry"/>
                </mxCell>
                <mxCell id="31" value="Job System" style="rounded=0;whiteSpace=wrap;html=1;fontSize=14;" parent="1" vertex="1">
                    <mxGeometry x="1379" y="470" width="120" height="40" as="geometry"/>
                </mxCell>
                <mxCell id="32" value="Engine Config" style="rounded=0;whiteSpace=wrap;html=1;fontSize=14;" parent="1" vertex="1">
                    <mxGeometry x="1509" y="470" width="120" height="40" as="geometry"/>
                </mxCell>
                <mxCell id="33" value="Serialization" style="rounded=0;whiteSpace=wrap;html=1;fontSize=14;" parent="1" vertex="1">
                    <mxGeometry x="1639" y="470" width="120" height="40" as="geometry"/>
                </mxCell>
                <mxCell id="37" value="&lt;font style=&quot;font-size: 14px&quot;&gt;Logging&lt;/font&gt;" style="rounded=0;whiteSpace=wrap;html=1;fontSize=16;" parent="1" vertex="1">
                    <mxGeometry x="1379" y="570" width="120" height="40" as="geometry"/>
                </mxCell>
                <mxCell id="38" value="Threading" style="rounded=0;whiteSpace=wrap;html=1;fontSize=14;" parent="1" vertex="1">
                    <mxGeometry x="1509" y="570" width="120" height="40" as="geometry"/>
                </mxCell>
                <mxCell id="49" value="File I/O" style="rounded=0;whiteSpace=wrap;html=1;fontSize=14;" parent="1" vertex="1">
                    <mxGeometry x="1639" y="570" width="120" height="40" as="geometry"/>
                </mxCell>
                <mxCell id="50" value="" style="rounded=0;whiteSpace=wrap;html=1;" parent="1" vertex="1">
                    <mxGeometry x="1368" y="140" width="791" height="80" as="geometry"/>
                </mxCell>
                <mxCell id="51" value="&lt;font style=&quot;font-size: 16px&quot;&gt;Application Layer&lt;/font&gt;" style="text;html=1;strokeColor=none;fillColor=none;align=center;verticalAlign=middle;whiteSpace=wrap;rounded=0;" parent="1" vertex="1">
                    <mxGeometry x="1369.5" y="140" width="789" height="30" as="geometry"/>
                </mxCell>
                <mxCell id="58" value="Memory" style="rounded=0;whiteSpace=wrap;html=1;fontSize=14;" parent="1" vertex="1">
                    <mxGeometry x="1769" y="570" width="120" height="40" as="geometry"/>
                </mxCell>
                <mxCell id="64" value="Asset System" style="rounded=0;whiteSpace=wrap;html=1;fontSize=14;" parent="1" vertex="1">
                    <mxGeometry x="1899" y="370" width="120" height="40" as="geometry"/>
                </mxCell>
                <mxCell id="65" value="Event System" style="rounded=0;whiteSpace=wrap;html=1;fontSize=14;" parent="1" vertex="1">
                    <mxGeometry x="1640" y="270" width="120" height="40" as="geometry"/>
                </mxCell>
                <mxCell id="67" value="Application / Game Logic" style="rounded=0;whiteSpace=wrap;html=1;fontSize=14;" parent="1" vertex="1">
                    <mxGeometry x="1379" y="170" width="771" height="40" as="geometry"/>
                </mxCell>
                <mxCell id="21" value="Gameplay&lt;br&gt;Framework" style="rounded=0;whiteSpace=wrap;html=1;fontSize=14;" parent="1" vertex="1">
                    <mxGeometry x="1380" y="270" width="120" height="40" as="geometry"/>
                </mxCell>
                <mxCell id="68" value="&lt;span style=&quot;font-size: 50px&quot;&gt;Scheduling Infrastructure&lt;/span&gt;" style="text;html=1;strokeColor=none;fillColor=none;align=center;verticalAlign=middle;whiteSpace=wrap;rounded=0;" vertex="1" parent="1">
                    <mxGeometry x="2480" y="60" width="790" height="80" as="geometry"/>
                </mxCell>
                <mxCell id="70" style="edgeStyle=orthogonalEdgeStyle;html=1;exitX=0.5;exitY=1;exitDx=0;exitDy=0;entryX=0.5;entryY=0;entryDx=0;entryDy=0;rounded=0;" edge="1" parent="1" source="69" target="rlvlehiji5V7kBC4I5T0-1">
                    <mxGeometry relative="1" as="geometry"/>
                </mxCell>
                <mxCell id="69" value="Lada Renderer&lt;br&gt;(static library)" style="rounded=0;whiteSpace=wrap;html=1;" vertex="1" parent="1">
                    <mxGeometry x="560" y="140" width="210" height="100" as="geometry"/>
                </mxCell>
                <mxCell id="73" style="edgeStyle=orthogonalEdgeStyle;rounded=0;html=1;exitX=0.5;exitY=1;exitDx=0;exitDy=0;entryX=0.5;entryY=0;entryDx=0;entryDy=0;" edge="1" parent="1" source="71" target="rlvlehiji5V7kBC4I5T0-1">
                    <mxGeometry relative="1" as="geometry"/>
                </mxCell>
                <mxCell id="71" value="Echo Audio&lt;br&gt;(static library)" style="rounded=0;whiteSpace=wrap;html=1;" vertex="1" parent="1">
                    <mxGeometry x="790" y="140" width="210" height="100" as="geometry"/>
                </mxCell>
            </root>
        </mxGraphModel>
    </diagram>
</mxfile>